# xmcd
#
# Track frame offsets:
#	150
#	10470
#	27425
#	41335
#	64472
#	83892
#	100760
#	132400
#	162215
#
# Disc length: 2578
#
# Revision: 3
# Processed by: cddbd v1.5.1PL0 Copyright (c) Steve Scherf et al.
# Submitted via: tcd 2.0b
# Normalized: r2:DSETVAR1
#
DISCID=720a1009
DTITLE=Various Artist - The Blues... "A real summit meeting" 2/2
DYEAR=1900
DGENRE=
TTITLE0=Lloyd Glenn - Honky Tonk Train Blues
TTITLE1=Lloyd Glenn - After Hours
TTITLE2=Lloyd Glenn - Pine Tops Boogie Woogie
TTITLE3=Muddy Waters - Long Distance Call
TTITLE4=Muddy Waters - Where's My Woman Been
TTITLE5=Muddy Waters - Got My Mojo Workin'
TTITLE6=Clarence "Gatemouth" Brown - The Drifter
TTITLE7=Clarence "Gatemouth" Brown - Please Mr. Nixon
TTITLE8=B. B. King - Outside Help
EXTD=[Catégorie: Blues]\n[Enregistrement: 1973]
EXTT0=Lloyd Glenn
EXTT1=Lloyd Glenn
EXTT2=Lloyd Glenn
EXTT3=Muddy Waters
EXTT4=Muddy Waters
EXTT5=Muddy Waters
EXTT6=Clarence "Gatemouth" Brown
EXTT7=Clarence "Gatemouth" Brown
EXTT8=B. B. King
PLAYORDER=
